<?xml version="1.0" encoding="iso-8859-1"?>
<!-- Generator: Adobe Illustrator 16.0.0, SVG Export Plug-In . SVG Version: 6.00 Build 0)  -->
<!DOCTYPE svg PUBLIC "-//W3C//DTD SVG 1.1//EN" "http://www.w3.org/Graphics/SVG/1.1/DTD/svg11.dtd">
<svg version="1.1" id="&#x56FE;&#x5C42;_1" xmlns="http://www.w3.org/2000/svg" xmlns:xlink="http://www.w3.org/1999/xlink" x="0px"
	 y="0px" width="11735.43px" height="4762.2px" viewBox="0 0 11735.43 4762.2" style="enable-background:new 0 0 11735.43 4762.2;"
	 xml:space="preserve">
<rect x="-2.85" y="12.328" style="opacity:0;fill:#F6F6F6;" width="11738.279" height="4749.872"/>
<g>
	<circle style="fill:#F6F6F6;" cx="4432.962" cy="899.416" r="749.416"/>
	<path style="fill:#F6F6F6;" d="M5182.377,2237.548c0,5.546-3.834,10.042-8.564,10.042H3692.111c-4.73,0-8.565-4.497-8.565-10.042
		v-371.57c0-5.546,3.835-10.042,8.565-10.042h1481.702c4.73,0,8.564,4.496,8.564,10.042V2237.548z"/>
</g>
<g>
	<circle style="fill:#F6F6F6;" cx="7183.508" cy="899.416" r="749.416"/>
	<path style="fill:#F6F6F6;" d="M7932.924,2237.548c0,5.546-3.834,10.042-8.564,10.042H6442.658c-4.73,0-8.566-4.497-8.566-10.042
		v-371.57c0-5.546,3.836-10.042,8.566-10.042h1481.701c4.73,0,8.564,4.496,8.564,10.042V2237.548z"/>
</g>
<g>
	<circle style="fill:#F6F6F6;" cx="1682.416" cy="899.416" r="749.416"/>
	<path style="fill:#F6F6F6;" d="M2431.831,2237.548c0,5.546-3.834,10.042-8.565,10.042h-1481.7c-4.73,0-8.565-4.497-8.565-10.042
		v-371.57c0-5.546,3.835-10.042,8.565-10.042h1481.7c4.731,0,8.565,4.496,8.565,10.042V2237.548z"/>
</g>
<g>
	<circle style="fill:#F6F6F6;" cx="9934.055" cy="899.416" r="749.416"/>
	<path style="fill:#F6F6F6;" d="M10683.471,2237.548c0,5.546-3.834,10.042-8.565,10.042h-1481.7c-4.73,0-8.565-4.497-8.565-10.042
		v-371.57c0-5.546,3.835-10.042,8.565-10.042h1481.7c4.731,0,8.565,4.496,8.565,10.042V2237.548z"/>
</g>
<g>
	<circle style="fill:#F6F6F6;" cx="4432.962" cy="3243.595" r="749.416"/>
	<path style="fill:#F6F6F6;" d="M5182.377,4581.728c0,5.545-3.834,10.042-8.564,10.042H3692.111c-4.73,0-8.565-4.497-8.565-10.042
		v-371.57c0-5.546,3.835-10.042,8.565-10.042h1481.702c4.73,0,8.564,4.496,8.564,10.042V4581.728z"/>
</g>
<g>
	<circle style="fill:#F6F6F6;" cx="7183.508" cy="3243.595" r="749.416"/>
	<path style="fill:#F6F6F6;" d="M7932.924,4581.728c0,5.545-3.834,10.042-8.564,10.042H6442.658c-4.73,0-8.566-4.497-8.566-10.042
		v-371.57c0-5.546,3.836-10.042,8.566-10.042h1481.701c4.73,0,8.564,4.496,8.564,10.042V4581.728z"/>
</g>
<g>
	<circle style="fill:#F6F6F6;" cx="1682.416" cy="3243.595" r="749.416"/>
	<path style="fill:#F6F6F6;" d="M2431.831,4581.728c0,5.545-3.834,10.042-8.565,10.042h-1481.7c-4.73,0-8.565-4.497-8.565-10.042
		v-371.57c0-5.546,3.835-10.042,8.565-10.042h1481.7c4.731,0,8.565,4.496,8.565,10.042V4581.728z"/>
</g>
<g>
	<circle style="fill:#F6F6F6;" cx="9934.053" cy="3243.595" r="749.415"/>
	<path style="fill:#F6F6F6;" d="M10683.468,4581.728c0,5.545-3.834,10.042-8.565,10.042h-1481.7c-4.73,0-8.565-4.497-8.565-10.042
		v-371.57c0-5.546,3.835-10.042,8.565-10.042h1481.7c4.731,0,8.565,4.496,8.565,10.042V4581.728z"/>
</g>
</svg>
